<?xml version="1.0" standalone="no"?>
<!DOCTYPE svg PUBLIC "-//W3C//DTD SVG 20010904//EN"
 "http://www.w3.org/TR/2001/REC-SVG-20010904/DTD/svg10.dtd">
<svg version="1.0" xmlns="http://www.w3.org/2000/svg"
 width="700.000000pt" height="700.000000pt" viewBox="0 0 700.000000 700.000000"
 preserveAspectRatio="xMidYMid meet">
<metadata>
Created by potrace 1.11, written by Peter Selinger 2001-2013
</metadata>
<g transform="translate(0.000000,700.000000) scale(0.100000,-0.100000)"
fill="#000000" stroke="none">
<path d="M419 6973 c0 -24 0 -3163 0 -3230 l1 -52 360 0 360 0 0 67 c0 37 1
287 0 557 l0 490 162 162 c90 90 167 163 173 163 5 0 114 -140 240 -311 127
-171 236 -318 243 -327 7 -9 36 -49 65 -87 29 -39 160 -215 291 -392 l239
-322 464 0 c357 0 462 3 455 12 -132 174 -364 477 -490 640 -405 529 -804
1049 -827 1082 -11 15 -25 32 -30 39 -6 6 -39 48 -74 93 l-63 83 133 128 c74
71 150 144 170 163 20 19 125 120 234 224 109 105 215 206 235 225 190 182
416 399 515 494 l120 115 -472 1 c-277 0 -473 -4 -475 -9 -1 -5 -246 -255
-543 -556 -297 -301 -588 -596 -646 -656 -59 -60 -110 -109 -114 -109 -3 0 -6
28 -5 63 1 34 1 333 1 665 l-1 602 -360 0 c-336 0 -360 -1 -361 -17z"/>
<path d="M3846 5348 c1 -904 2 -1646 3 -1650 0 -5 591 -8 1311 -8 1041 0 1310
3 1311 13 1 16 1 538 0 557 -1 13 -112 15 -948 14 -522 0 -954 2 -960 4 -10 3
-13 98 -13 428 l0 424 847 2 847 3 1 287 c0 247 -2 287 -15 290 -8 2 -390 3
-847 3 l-833 -1 0 348 0 348 908 -1 c499 0 913 0 920 0 9 1 12 66 12 291 l0
290 -1273 0 -1272 0 1 -1642z"/>
<path d="M1987 3484 c-1 -1 -49 -4 -107 -8 -736 -41 -1264 -511 -1415 -1258
-36 -181 -45 -277 -44 -483 0 -145 2 -182 14 -290 39 -355 157 -662 344 -900
176 -223 439 -394 726 -471 173 -48 277 -59 520 -58 221 0 340 16 502 65 266
81 526 255 672 449 14 19 28 37 32 40 17 15 75 110 114 188 40 78 125 315 139
383 3 13 8 38 11 55 l7 31 -359 -1 -358 -1 -36 -100 c-45 -128 -45 -129 -91
-202 -125 -199 -359 -315 -638 -315 -233 0 -413 69 -560 213 -207 204 -305
497 -304 909 0 345 62 599 192 800 175 269 493 398 840 343 170 -27 294 -85
393 -183 74 -74 127 -161 172 -288 l32 -87 358 0 359 0 -6 50 c-6 52 -7 58
-25 137 -77 337 -351 661 -696 823 -181 85 -378 135 -593 151 -91 6 -192 11
-195 8z"/>
<path d="M5027 3484 c-1 -1 -47 -5 -102 -8 -55 -4 -107 -9 -115 -11 -8 -2 -33
-6 -55 -9 -123 -14 -284 -62 -414 -124 -268 -126 -445 -334 -518 -608 -23 -88
-26 -119 -27 -269 -1 -191 11 -254 70 -383 105 -229 280 -365 602 -466 74 -23
277 -77 342 -90 14 -3 86 -19 160 -36 74 -17 144 -32 155 -34 16 -4 139 -33
295 -70 124 -30 267 -86 337 -133 95 -63 133 -141 128 -266 -11 -261 -270
-406 -715 -401 -452 5 -687 161 -735 488 -3 22 -7 41 -9 43 -2 2 -156 4 -342
4 l-339 1 -3 -34 c-9 -85 30 -285 77 -391 160 -367 511 -587 1057 -663 69 -10
487 -13 549 -4 33 4 80 11 105 13 96 12 265 55 376 97 359 134 603 415 662
762 15 89 8 349 -11 428 -51 208 -160 343 -389 483 -105 65 -469 178 -743 232
-11 2 -87 19 -168 39 -82 20 -158 38 -170 40 -286 55 -465 118 -540 189 -120
115 -105 348 32 468 72 64 208 120 326 136 113 14 329 8 430 -12 221 -44 367
-179 421 -390 10 -38 21 -74 25 -80 6 -8 528 -12 672 -6 15 1 16 8 11 54 -6
54 -9 75 -19 117 -3 14 -7 36 -10 50 -10 54 -48 159 -87 235 -100 200 -242
340 -451 445 -85 43 -245 101 -318 115 -126 25 -182 32 -297 41 -77 6 -251 11
-255 8z"/>
</g>
</svg>
